<svg xmlns="http://www.w3.org/2000/svg" viewBox="0 0 450 51"><path d="M33.1 20h-22V.1H0v50.8h11.1V30.4h22v20.5h11.1V.1H33.1zm41.1-.6L62.4.1H49.9l18.8 30.3v20.5h11.1V30.4L98.6.1H86.2zm88 11h19.9V20h-19.9v-9.5h26.1V.1h-37.2v50.8h37.6V40.5h-26.5zM285.7.1H275L254.6 51h11.8l3-7.6h21.8l3 7.6H306L285.8.4l-.1-.3zm-11.9 32.1l6.7-16.8 6.6 16.8h-13.3zM351.9.1h-12.6L323.5 19V.1h-11.1v50.8h11.1V30.4l18 20.4.1.1H356l-24-27.1zM450 50.9L437.5 29c5.9-2.2 8.9-6.8 8.9-14 0-9.9-6-14.9-18-14.9h-22.3V51h11.1V30.4h8.2l11.9 20.5H450zm-32.8-40.4h13.5c3.6.1 5.4 1.6 5.5 4.5-.1 3.3-1.9 4.8-5.6 4.9h-13.4v-9.4zm-44.5 19.9h19.9V19.9h-19.9v-9.5h26.1V.1h-37.2v50.8h37.6V40.5h-26.5zM126.5.1h-22.3V51h11.1V30.4h11.2c11.9 0 17.9-5.2 17.9-15.4.1-9.9-6-14.9-17.9-14.9zm2.2 19.9h-13.4v-9.5h13.5c3.6.1 5.4 1.6 5.5 4.5-.1 3.3-1.9 4.9-5.6 5zm94.3 4.9L198.1.1h-.6v50.8h11.1V26.2L223 40.5l14.4-14.3v24.7h11.1V.1h-.7z" fill="#FFF"/></svg>